<svg xmlns="http://www.w3.org/2000/svg" viewBox="0 0 140.14 131.77"><defs><style>.cls-1{fill:#fff;}</style></defs><g id="Layer_2" data-name="Layer 2"><g id="objects"><path class="cls-1" d="M23.45,131.77H94.92a23.48,23.48,0,0,0,23.45-23.45V75.93a5.59,5.59,0,0,0-11.17,0v32.39A12.3,12.3,0,0,1,94.92,120.6H23.45a12.3,12.3,0,0,1-12.28-12.28V36.85A12.3,12.3,0,0,1,23.45,24.57H75.38a5.59,5.59,0,0,0,0-11.17H23.45A23.48,23.48,0,0,0,0,36.85v71.47A23.48,23.48,0,0,0,23.45,131.77Z"/><path class="cls-1" d="M48.65,55.23a11.17,11.17,0,1,0-16.9,14.6L53.94,95.52a11.18,11.18,0,0,0,16.9,0l66.58-77a11.16,11.16,0,1,0-16.89-14.6L62.39,71.14Z"/></g></g></svg>